<?xml version="1.0" encoding="utf-8"?>
<!-- Svg Vector Icons : http://www.onlinewebfonts.com/icon -->
<!DOCTYPE svg PUBLIC "-//W3C//DTD SVG 1.1//EN" "http://www.w3.org/Graphics/SVG/1.1/DTD/svg11.dtd">
<svg version="1.1" xmlns="http://www.w3.org/2000/svg" xmlns:xlink="http://www.w3.org/1999/xlink" x="0px" y="0px" viewBox="0 0 1000 1000" enable-background="new 0 0 1000 1000" xml:space="preserve">
<metadata> Svg Vector Icons : http://www.onlinewebfonts.com/icon </metadata>
<g><path d="M500,990c-66.1,0-130.3-13-190.7-38.5c-58.4-24.7-110.8-60-155.7-105c-45-45-80.3-97.4-105-155.7C23,630.3,10,566.1,10,500s13-130.3,38.5-190.7c24.7-58.4,60-110.8,105-155.7c45-45,97.4-80.3,155.7-105C369.7,23,433.9,10,500,10c66.1,0,130.3,13,190.7,38.5c58.4,24.7,110.8,60,155.7,105c45,45,80.3,97.4,105,155.7C977,369.7,990,433.9,990,500s-13,130.3-38.5,190.7c-24.7,58.4-60,110.8-105,155.7c-45,45-97.4,80.3-155.7,105C630.3,977,566.1,990,500,990z M500,53.7C253.9,53.7,53.7,253.9,53.7,500c0,246.1,200.2,446.3,446.3,446.3c246.1,0,446.3-200.2,446.3-446.3C946.3,253.9,746.1,53.7,500,53.7z"/><path d="M498.5,552.9c-109.5,0-198.6-89.1-198.6-198.6c0-109.5,89.1-198.6,198.6-198.6c109.5,0,198.6,89.1,198.6,198.6C697.1,463.8,608,552.9,498.5,552.9z M498.5,199.3c-85.4,0-155,69.5-155,155c0,85.4,69.5,155,155,155c85.4,0,155-69.5,155-155S583.9,199.3,498.5,199.3z"/><path d="M209.9,851.2l-43.5-3.9c0.3-3.3,7.9-82.9,52.1-163.5c26.4-48,60.3-86.4,100.8-114.1c50.8-34.6,111.7-52.2,181-52.2c69.2,0,130,17.2,180.8,51.1c40.5,27.1,74.5,64.7,100.8,111.8c44.2,79,51.7,157.1,52,160.4l-43.5,4c-0.1-0.7-7.3-73.3-47.3-144.2C690.9,608,609.2,561.1,500.3,561.1c-109.3,0-191.2,48.3-243.5,143.6C216.9,777.4,210,850.4,209.9,851.2z"/></g>
</svg>