<?xml version="1.0" standalone="no"?>
<!DOCTYPE svg PUBLIC "-//W3C//DTD SVG 20010904//EN"
 "http://www.w3.org/TR/2001/REC-SVG-20010904/DTD/svg10.dtd">
<svg version="1.0" xmlns="http://www.w3.org/2000/svg"
 width="529.000000pt" height="106.000000pt" viewBox="0 0 529.000000 106.000000"
 preserveAspectRatio="xMidYMid meet">

<g transform="translate(0.000000,106.000000) scale(0.100000,-0.100000)"
fill="#000000" stroke="none">
<path d="M199 900 c-49 -26 -68 -59 -76 -130 -6 -59 -6 -60 -37 -60 -41 0 -56
-16 -56 -57 0 -36 21 -53 64 -53 l26 0 0 -259 c0 -145 4 -271 10 -285 8 -22
16 -26 47 -26 70 0 68 -11 71 295 l3 275 40 0 c58 0 79 14 79 53 0 45 -16 57
-72 57 l-48 0 0 43 c0 50 13 67 53 67 57 0 81 33 61 84 -9 24 -118 21 -165 -4z"/>
<path d="M1192 868 c-7 -7 -12 -42 -12 -85 l0 -73 -29 0 c-77 0 -85 -94 -10
-106 l39 -7 0 -231 c0 -214 2 -233 20 -264 27 -44 89 -72 163 -72 52 0 59 2
69 25 8 19 8 31 0 50 -10 21 -18 25 -56 25 -76 0 -76 1 -76 251 l0 219 50 0
c54 0 90 23 90 59 0 35 -27 51 -86 51 l-54 0 0 75 c0 63 -3 76 -19 85 -26 14
-74 13 -89 -2z"/>
<path d="M598 696 c-61 -22 -89 -45 -110 -92 -18 -41 -19 -63 -16 -254 3 -232
5 -238 78 -288 31 -20 44 -22 190 -22 146 0 159 2 190 22 74 51 75 54 75 306
0 224 0 228 -24 261 -14 19 -46 44 -75 57 -44 21 -66 24 -161 23 -66 0 -125
-5 -147 -13z m271 -122 c19 -25 21 -40 21 -206 0 -99 -4 -188 -10 -198 -14
-26 -63 -40 -140 -40 -86 0 -125 14 -140 49 -7 19 -10 86 -8 204 4 225 -1 217
149 217 104 0 108 -1 128 -26z"/>
<path d="M1641 683 c-96 -49 -96 -49 -96 -313 0 -255 1 -257 75 -308 31 -20
44 -22 190 -22 146 0 159 2 191 23 19 12 44 42 57 67 22 43 23 53 20 250 -3
236 -9 256 -89 300 -39 22 -58 25 -169 28 -121 3 -127 2 -179 -25z m295 -104
c17 -19 19 -38 19 -210 0 -183 -1 -189 -23 -211 -21 -21 -32 -23 -128 -23
-149 0 -144 -8 -144 236 0 239 -6 229 148 229 98 0 111 -2 128 -21z"/>
<path d="M2192 703 c-40 -16 -35 -37 67 -352 67 -205 106 -311 117 -315 28
-11 162 -7 170 5 4 7 51 149 105 316 101 312 104 331 63 347 -8 3 -29 6 -45 6
-36 0 -28 19 -129 -297 -45 -139 -83 -253 -85 -253 -3 0 -41 114 -86 253 -45
138 -87 262 -95 275 -14 21 -50 28 -82 15z"/>
<path d="M3636 695 c-22 -8 -53 -28 -70 -45 l-31 -30 -3 -281 c-2 -205 0 -284
9 -295 14 -17 80 -19 97 -2 9 9 12 81 12 263 0 206 3 254 15 272 13 18 27 21
105 25 96 3 110 10 110 55 0 42 -24 53 -118 53 -48 -1 -105 -7 -126 -15z"/>
<path d="M4081 683 c-83 -42 -96 -67 -96 -173 0 -102 13 -129 81 -164 31 -17
64 -22 165 -26 106 -4 130 -8 148 -24 28 -26 29 -104 2 -137 -18 -23 -26 -24
-129 -24 -127 0 -145 9 -156 76 -8 48 -40 68 -84 53 -35 -12 -47 -48 -33 -101
15 -56 52 -98 105 -118 63 -24 295 -18 349 9 65 32 82 67 82 171 0 77 -3 94
-22 121 -39 54 -82 68 -226 74 -120 5 -130 7 -148 29 -26 32 -26 104 1 131 18
18 33 20 128 20 123 0 138 -7 149 -74 7 -43 13 -48 60 -48 51 0 67 20 59 74
-9 61 -38 103 -88 130 -37 19 -62 23 -168 26 -121 3 -127 2 -179 -25z"/>
<path d="M4771 688 c-88 -45 -101 -85 -101 -318 0 -233 13 -273 101 -318 39
-21 54 -23 134 -18 130 8 217 20 243 35 38 21 62 70 62 128 0 41 -4 54 -19 63
-48 25 -101 -6 -101 -58 0 -54 -29 -67 -146 -67 -94 0 -105 2 -126 23 -22 22
-23 28 -23 212 0 184 1 190 23 212 21 21 32 23 128 23 99 0 107 -1 125 -24 15
-18 19 -39 19 -92 l0 -69 -103 0 c-111 0 -127 -6 -127 -50 0 -46 13 -50 170
-50 190 0 183 -7 178 164 -3 141 -13 163 -84 200 -33 18 -61 21 -174 24 -125
3 -138 1 -179 -20z"/>
<path d="M2926 677 c-72 -41 -77 -61 -74 -317 3 -219 4 -226 27 -259 41 -57
87 -71 235 -71 144 0 192 14 240 70 28 33 42 110 26 140 -22 40 -110 34 -110
-8 0 -11 -5 -33 -11 -50 -15 -42 -59 -56 -167 -50 -124 7 -122 3 -122 238 0
243 -5 235 144 235 96 0 107 -2 128 -23 19 -19 23 -33 23 -90 l0 -67 -108 -3
c-104 -3 -108 -4 -119 -27 -8 -19 -8 -31 0 -50 l12 -25 148 0 c189 0 186 -2
191 116 6 151 -23 224 -102 253 -16 6 -94 11 -175 11 -134 0 -151 -2 -186 -23z"/>
</g>
</svg>
